<?xml version="1.0" encoding="UTF-8"?>
<svg id="Layer_2" data-name="Layer 2" xmlns="http://www.w3.org/2000/svg" viewBox="0 0 861.52 229.73">
  <defs>
    <style>
      .cls-1 {
        fill: #1C2B3A;
      }

      .cls-2 {
        fill: #4aada8;
      }
    </style>
  </defs>
  <g id="Layer_2-2" data-name="Layer 2">
    <g>
      <path class="cls-2" d="M612.31,79.05c15.45-1.13,32.22,4.15,34.14,21.65.06.54-.05,1.13,0,1.69,1,13.29-.25,26.96.26,40.33-.29,4.03-2.3,6.24-6.37,6.59-2.73.23-9.87.28-12.22-.75-1.21-.53-2.81-2.57-3.82-2.55-1.66.04-3.96,1.85-5.63,2.52-13.42,5.42-31.85-.1-34.12-15.93s7.57-23.67,21.96-25.99c4.12-.66,8.56-.71,12.63-1.53,2.15-.43,4.34-1.27,4.01-3.88-.19-1.44-2.03-2.92-3.34-3.37-2.31-.8-5.93-.51-8.16.48-3.3,1.46-4.51,5.24-8.75,5.65-2.42.23-8.69-.87-11.17-1.56-9.43-2.61-2.27-12.23,2.16-16.09,4.87-4.25,12-6.78,18.43-7.25ZM619.51,121.53c-2.92.3-9.04,1.26-11.21,3.19-2.11,1.87-2.05,5.23.39,6.79,2.3,1.47,6.62,1.27,9.09.28,2.98-1.19,5.48-3.83,5.85-7.11s-1.32-3.44-4.11-3.16Z"/>
      <path class="cls-2" d="M824.71,79.05c22.72-1.8,35.78,12.23,36.79,34.12.23,4.92-1.35,8.17-6.6,8.54-10.71.77-22.33-.6-33.13-.01-5.77.38-1.67,6.33,1,8.12,3.81,2.57,9.45,2.67,13.36.24,2.57-1.6,3.82-4.67,7.23-5.01,2.66-.26,8,.84,10.69,1.56,4.71,1.26,6.41,3.83,4.43,8.52-6.03,14.29-26.83,17.64-40.25,13.86-33.96-9.58-30.21-67.04,6.48-69.95ZM828.31,97.52c-2.22.18-4.46.79-6.19,2.22-2.5,2.06-4.47,5.31.35,5.66,3.32.24,8.96.27,12.25,0,2.15-.18,3.46-1.09,2.37-3.34-1.38-2.86-5.72-4.78-8.79-4.53Z"/>
      <path class="cls-2" d="M334.15,79.05c20.38-1.62,35.35,10.67,36.54,31.25.33,5.62.24,10.92-6.59,11.42-10.71.77-22.33-.6-33.13-.01-2.57.33-3.29,1.32-2.32,3.77,2.29,5.76,9.49,7.6,14.98,5.53,3.31-1.24,5.53-5.58,8.93-5.95,2.55-.27,9.73,1.03,12.24,1.94,1.58.57,3.1,1.69,3.62,3.34,1.36,4.29-3.56,9.94-6.6,12.62-10.94,9.62-31.72,9.93-43.52,1.75-12.48-8.65-15.66-24.6-13.06-38.89,2.66-14.58,13.93-25.57,28.92-26.76ZM337.51,97.53c-2.74.28-5.75,1.32-7.49,3.56-1.9,2.44-1.61,4.03,1.66,4.31,3.28.27,9.21.28,12.49,0,4.62-.39,2.47-3.99.1-5.87-1.79-1.42-3.68-1.71-5.89-2.05l-.87.05Z"/>
      <path class="cls-2" d="M677.23,83.72c1.36,1.54,3.32-.54,4.51-1.24,3.25-1.92,6.84-3.25,10.66-3.5,16.38-1.09,26.41,9.41,27.26,25.31.67,12.67-.53,25.92,0,38.65-.38,3.03-1.45,5.2-4.56,6-2.47.64-9.19.59-11.89.36-4.07-.35-6.08-2.56-6.37-6.59-.78-10.79.63-22.51.02-33.38-.3-5.38-2.62-10.4-8.77-10.4-6.76,0-9.4,5.41-9.73,11.36-.6,10.68.47,21.92.01,32.65-.4,4.07-2.53,6.08-6.59,6.37-2.73.2-8.93.28-11.42-.36-3.2-.83-4.25-3.12-4.56-6.24v-56.42c.31-3.11,1.37-5.41,4.56-6.24,2.43-.63,10.07-.63,12.5,0,1.78.46,2.66,1.3,3.84,2.64.3.34.33.79.54,1.02Z"/>
      <path class="cls-2" d="M550.87,79.05c16.38-1.34,26.76,8.99,27.67,25,.71,12.64-.57,25.95,0,38.66-.3,4.19-2.41,6.3-6.6,6.6-2.77.2-9.14.29-11.66-.36-3.11-.8-4.17-2.97-4.56-6-.5-11.11.68-22.81.01-33.85-.23-3.85-1.35-7.85-5.23-9.41-3.93-1.59-8.47-.37-11.1,2.95-1.51,1.91-2.05,5.5-2.17,7.91-.56,10.62.44,21.74.01,32.41-.38,3.03-1.44,5.2-4.56,6-2.44.63-8.98.59-11.65.36-4.07-.35-6.08-2.56-6.37-6.59v-56.42c.32-3.22,1.44-5.5,4.76-6.28,2.43-.57,9.9-.57,12.3.05,1.74.45,2.29,1.03,3.48,2.28,1.47,1.55,1.32,2.7,3.88,1.26,4.36-2.46,6.37-4.1,11.77-4.55Z"/>
      <path class="cls-2" d="M470.23,79.05c24.52-1.79,39.54,14.93,37.73,38.93-1.69,22.39-18.09,35.41-40.41,32.02-38.05-5.78-36.73-68.07,2.68-70.95ZM472.62,98.25c-10.63,1.47-11.07,19.53-7.43,26.99,1.26,2.59,4.19,5.43,7.14,5.82,12.2,1.6,13.96-14.23,12.03-22.83-1.31-5.86-5.13-10.88-11.75-9.97Z"/>
      <path class="cls-2" d="M400.28,102.43c.85.91,3.02,1.55,4.24,1.88,11.81,3.18,29.22,3.28,31.66,18.98,4.54,29.13-43.3,35.59-57.68,16.16-2.81-3.8-6.11-10.73-.14-13.3,2.51-1.08,9.06-2.08,11.91-2.28.45-.03,1.79.21,2.26.34,2.96.78,4.39,4.93,6.96,6.48,2.7,1.63,9.06,2.07,11.63.13,2.7-2.03,1.03-4.42-1.5-5.46-4.57-1.87-11.22-2.16-16.14-3.54-9.8-2.74-17.78-9.51-17.77-20.4.02-25.12,40.7-29.05,54.14-13.33,2.97,3.48,6.79,10.51,1.05,13.31-2.33,1.14-10.49,2.38-13.05,2.04-3.16-.41-5.16-4.67-8.48-5.92-2.61-.98-7.79-.96-9.53,1.63-.7,1.04-.41,2.4.42,3.28Z"/>
      <path class="cls-2" d="M756.07,79.05c12.6-.92,25.36,2.82,31.93,14.26,2.34,4.07,4.58,10.18-1.09,12.5-2.34.95-10.24,2.48-12.64,2.2-3.64-.42-4.45-3.23-6.28-5.72-4.62-6.32-13.35-5.14-16.71,1.73-4.23,8.66-2.82,28.81,10.71,27.03,5.02-.66,5.88-4.75,8.43-7.89,1.85-2.27,4.16-2.4,6.92-2.16,2.08.19,7.72,1.21,9.56,1.96,5.92,2.42,3.54,8.59,1.19,12.82-6.78,12.15-21.31,16.28-34.46,14.21-38.37-6.04-36.38-68.11,2.44-70.95Z"/>
      <path class="cls-2" d="M297.43,78.8c.61-.05,2.16.1,2.79.2,2.79.45,4.92,1.86,5.6,4.72.55,2.31.53,8.49.28,10.96-.66,6.51-7.49,4.47-11.84,4.96-6.05.69-8.95,5.46-9.27,11.13-.59,10.52.46,21.59.01,32.17-.38,3.03-1.45,5.2-4.56,6-2.47.64-9.19.59-11.89.36-4.07-.35-6.08-2.56-6.37-6.59v-56.42c.3-4.19,2.41-6.3,6.6-6.6,2.78-.2,9.65-.29,12.06.68,1.42.57,2.91,2.71,4.23,2.63,1.06-.07,3.28-1.78,4.39-2.31,2.52-1.2,5.19-1.66,7.96-1.89Z"/>
      <path class="cls-1" d="M619.51,121.53c2.8-.28,4.49-.19,4.11,3.16s-2.87,5.92-5.85,7.11c-2.47.99-6.8,1.19-9.09-.28-2.44-1.56-2.5-4.92-.39-6.79,2.17-1.92,8.3-2.89,11.21-3.19Z"/>
      <path class="cls-1" d="M828.31,97.52c3.07-.25,7.41,1.67,8.79,4.53,1.09,2.25-.23,3.16-2.37,3.34-3.29.28-8.93.25-12.25,0-4.83-.35-2.85-3.59-.35-5.66,1.74-1.43,3.98-2.04,6.19-2.22Z"/>
      <path class="cls-1" d="M337.51,97.53l.87-.05c2.21.33,4.1.63,5.89,2.05,2.38,1.88,4.52,5.47-.1,5.87-3.27.28-9.21.27-12.49,0-3.27-.27-3.56-1.86-1.66-4.31,1.74-2.24,4.75-3.28,7.49-3.56Z"/>
      <path class="cls-1" d="M472.62,98.25c6.62-.91,10.44,4.11,11.75,9.97,1.93,8.61.16,24.43-12.03,22.83-2.96-.39-5.88-3.23-7.14-5.82-3.65-7.46-3.2-25.52,7.43-26.99Z"/>
    </g>
    <path class="cls-2" d="M181.65,221.28c-13.51,8.48-30.83,10.67-48.77,6.16-9.84-2.47-19.96-6.92-30.1-13.2-6.02-3.73-13.21-5.38-20.25-4.63-11.86,1.26-22.91.85-32.85-1.2-18.11-3.74-32.76-13.24-41.24-26.75s-10.67-30.83-6.16-48.77c2.47-9.84,6.92-19.97,13.2-30.1,3.73-6.01,5.38-13.21,4.63-20.25-1.26-11.86-.85-22.91,1.2-32.85,3.74-18.11,13.24-32.76,26.75-41.24C61.59-.03,78.91-2.22,96.85,2.29c9.84,2.47,19.96,6.92,30.1,13.2,6.02,3.73,13.21,5.38,20.25,4.63,11.86-1.26,22.91-.85,32.85,1.2,18.11,3.74,32.76,13.24,41.24,26.75s10.67,30.83,6.16,48.77c-2.47,9.84-6.92,19.97-13.2,30.1-3.73,6.02-5.38,13.21-4.63,20.25,1.26,11.86.85,22.91-1.2,32.85-3.74,18.11-13.24,32.76-26.75,41.24ZM61.37,29.63c-7.69,4.82-13.21,13.74-15.56,25.12-1.53,7.4-1.8,15.87-.82,25.16,1.33,12.54-1.6,25.35-8.25,36.06-4.93,7.94-8.36,15.68-10.2,23.01-2.83,11.26-1.74,21.7,3.09,29.38s13.74,13.21,25.12,15.56c7.41,1.53,15.87,1.81,25.16.82,12.54-1.33,25.35,1.6,36.06,8.25,7.94,4.93,15.68,8.36,23.01,10.2,11.26,2.83,21.7,1.73,29.39-3.09s13.21-13.74,15.56-25.12c1.53-7.4,1.8-15.87.82-25.16-1.33-12.54,1.6-25.35,8.25-36.06,4.93-7.94,8.36-15.68,10.2-23.01,2.83-11.26,1.74-21.7-3.09-29.38-4.82-7.69-13.74-13.21-25.12-15.56-7.41-1.53-15.87-1.81-25.16-.82-12.54,1.33-25.35-1.6-36.06-8.25-7.94-4.93-15.68-8.36-23.01-10.2-11.26-2.83-21.7-1.73-29.39,3.09ZM150.42,171.52c-3.81,2.39-7.73,4.67-11.67,6.78-24.94,13.34-56.3,6.17-72.96-16.68-2.63-3.61-5.18-7.37-7.57-11.19-2.4-3.82-4.68-7.75-6.78-11.69-13.33-24.94-6.15-56.3,16.7-72.96,7.22-5.26,14.97-10.13,22.85-14.34,24.94-13.34,56.3-6.17,72.96,16.68,2.63,3.61,5.18,7.37,7.57,11.19s4.68,7.75,6.78,11.69c13.33,24.94,6.15,56.3-16.7,72.96-3.61,2.63-7.37,5.18-11.18,7.56ZM92.6,79.39c-3.32,2.08-6.6,4.3-9.75,6.6-12.83,9.35-16.87,26.96-9.38,40.96,1.83,3.43,3.82,6.85,5.91,10.19s4.31,6.61,6.6,9.75c9.35,12.83,26.96,16.86,40.97,9.37,6.87-3.68,13.63-7.92,19.92-12.5,12.83-9.35,16.87-26.96,9.38-40.96-1.83-3.43-3.82-6.85-5.91-10.19s-4.31-6.61-6.6-9.75c-9.35-12.83-26.96-16.86-40.97-9.37-3.43,1.84-6.86,3.82-10.18,5.91Z"/>
  </g>
</svg>