<?xml version="1.0" encoding="UTF-8"?>
<svg id="Layer_2" data-name="Layer 2" xmlns="http://www.w3.org/2000/svg" viewBox="0 0 229.73 229.73">
  <defs>
    <style>
      .cls-1 {
        fill: #4aada8;
      }
    </style>
  </defs>
  <g id="Layer_2-2" data-name="Layer 2">
    <path class="cls-1" d="M181.65,221.28c-13.51,8.48-30.83,10.67-48.77,6.16-9.84-2.47-19.96-6.92-30.1-13.2-6.02-3.73-13.21-5.38-20.25-4.63-11.86,1.26-22.91.85-32.85-1.2-18.11-3.74-32.76-13.24-41.24-26.75s-10.67-30.83-6.16-48.77c2.47-9.84,6.92-19.97,13.2-30.1,3.73-6.01,5.38-13.21,4.63-20.25-1.26-11.86-.85-22.91,1.2-32.85,3.74-18.11,13.24-32.76,26.75-41.24C61.59-.03,78.91-2.22,96.85,2.29c9.84,2.47,19.96,6.92,30.1,13.2,6.02,3.73,13.21,5.38,20.25,4.63,11.86-1.26,22.91-.85,32.85,1.2,18.11,3.74,32.76,13.24,41.24,26.75s10.67,30.83,6.16,48.77c-2.47,9.84-6.92,19.97-13.2,30.1-3.73,6.02-5.38,13.21-4.63,20.25,1.26,11.86.85,22.91-1.2,32.85-3.74,18.11-13.24,32.76-26.75,41.24ZM61.37,29.63c-7.69,4.82-13.21,13.74-15.56,25.12-1.53,7.4-1.8,15.87-.82,25.16,1.33,12.54-1.6,25.35-8.25,36.06-4.93,7.94-8.36,15.68-10.2,23.01-2.83,11.26-1.74,21.7,3.09,29.38s13.74,13.21,25.12,15.56c7.41,1.53,15.87,1.81,25.16.82,12.54-1.33,25.35,1.6,36.06,8.25,7.94,4.93,15.68,8.36,23.01,10.2,11.26,2.83,21.7,1.73,29.39-3.09s13.21-13.74,15.56-25.12c1.53-7.4,1.8-15.87.82-25.16-1.33-12.54,1.6-25.35,8.25-36.06,4.93-7.94,8.36-15.68,10.2-23.01,2.83-11.26,1.74-21.7-3.09-29.38-4.82-7.69-13.74-13.21-25.12-15.56-7.41-1.53-15.87-1.81-25.16-.82-12.54,1.33-25.35-1.6-36.06-8.25-7.94-4.93-15.68-8.36-23.01-10.2-11.26-2.83-21.7-1.73-29.39,3.09ZM150.42,171.52c-3.81,2.39-7.73,4.67-11.67,6.78-24.94,13.34-56.3,6.17-72.96-16.68-2.63-3.61-5.18-7.37-7.57-11.19-2.4-3.82-4.68-7.75-6.78-11.69-13.33-24.94-6.15-56.3,16.7-72.96,7.22-5.26,14.97-10.13,22.85-14.34,24.94-13.34,56.3-6.17,72.96,16.68,2.63,3.61,5.18,7.37,7.57,11.19s4.68,7.75,6.78,11.69c13.33,24.94,6.15,56.3-16.7,72.96-3.61,2.63-7.37,5.18-11.18,7.56ZM92.6,79.39c-3.32,2.08-6.6,4.3-9.75,6.6-12.83,9.35-16.87,26.96-9.38,40.96,1.83,3.43,3.82,6.85,5.91,10.19s4.31,6.61,6.6,9.75c9.35,12.83,26.96,16.86,40.97,9.37,6.87-3.68,13.63-7.92,19.92-12.5,12.83-9.35,16.87-26.96,9.38-40.96-1.83-3.43-3.82-6.85-5.91-10.19s-4.31-6.61-6.6-9.75c-9.35-12.83-26.96-16.86-40.97-9.37-3.43,1.84-6.86,3.82-10.18,5.91Z"/>
  </g>
</svg>